<?xml version="1.0" encoding="utf-8"?>
<!-- Generator: Adobe Illustrator 16.0.0, SVG Export Plug-In . SVG Version: 6.00 Build 0)  -->
<!DOCTYPE svg PUBLIC "-//W3C//DTD SVG 1.1//EN" "http://www.w3.org/Graphics/SVG/1.1/DTD/svg11.dtd">
<svg version="1.1" id="Layer_1" xmlns="http://www.w3.org/2000/svg" xmlns:xlink="http://www.w3.org/1999/xlink" x="0px" y="0px"
	 width="32px" height="32px" viewBox="0 0 32 32" enable-background="new 0 0 32 32" xml:space="preserve">
<circle fill="#E2E2E2" cx="16" cy="16" r="16"/>
<circle fill="#F6F6F6" cx="16" cy="16" r="15"/>
<path fill="#E2E2E2" d="M23.717,14.103h-4.632c0.173-0.758,0.444-1.532,0.427-2.551c-0.016-0.881-0.601-2.164-1.019-2.847
	c-0.174-0.285-1.782-0.834-2.527,0.324l0.031,2.451c-0.583,1.256-1.737,3.183-2.569,3.898l-0.106-0.131l-5.73-0.011
	c-0.295-0.013-0.61,0.327-0.592,0.559l0.564,7.342c0.019,0.24,0.274,0.542,0.542,0.542h5.103c0.2,0,0.473-0.198,0.482-0.443
	l0.021-0.641c0.166,0.235,0.614,0.586,1.002,0.586h6.876c0.861,0,2.188-0.918,1.752-2.464c0.493-0.395,0.785-1.065,0.493-1.917
	c0.518-0.422,0.894-1.217,0.46-1.927C25.675,15.718,24.78,14.103,23.717,14.103z M23.768,16.451
	c-0.062,0.038-0.125,0.064-0.187,0.079c-0.013,0.004-0.024,0.008-0.036,0.012c-0.019,0.011-0.034,0.026-0.047,0.042
	c-0.019,0.025-0.03,0.052-0.037,0.08c0,0.002-0.001,0.005-0.001,0.007c-0.002,0.007-0.002,0.014-0.002,0.021
	c-0.002,0.062,0.028,0.125,0.099,0.164c0.07,0.092,0.123,0.184,0.163,0.274c0.006,0.014,0.011,0.026,0.017,0.04
	c0.001,0.003,0.002,0.006,0.003,0.009c0.023,0.06,0.04,0.118,0.05,0.176c0.083,0.458-0.199,0.854-0.613,1.068
	c-0.028,0.016-0.055,0.03-0.081,0.043c-0.005,0-0.009,0.002-0.014,0.003c-0.185,0.09-0.142,0.29-0.091,0.331
	c0.466,0.378,0.323,0.894,0.042,1.243c-0.126,0.165-0.287,0.295-0.445,0.354c-0.032,0.013-0.064,0.022-0.095,0.027
	c-0.001,0.001-0.003,0.001-0.004,0.002c-0.024,0.017-0.044,0.041-0.058,0.068c-0.001,0.004-0.003,0.007-0.004,0.011
	c-0.002,0.003-0.002,0.007-0.004,0.01c-0.014,0.042-0.021,0.094-0.013,0.14c0.006,0.03,0.018,0.059,0.036,0.082
	c0.001,0.001,0.002,0.002,0.004,0.004c0.01,0.011,0.021,0.021,0.033,0.029c0.128,0.114,0.206,0.233,0.245,0.354
	c0,0.001,0.001,0.002,0.001,0.003c0.004,0.014,0.008,0.028,0.012,0.042c0.177,0.673-0.798,1.347-1.066,1.333l-1.688-0.004
	c0.001,0,0.002-0.001,0.003-0.002c-2.018,0.003-5.181,0.003-5.233-0.023c-0.046,0.023-0.928-0.516-0.928-0.516l-0.184-0.001h-0.481
	v-0.002h-0.001v-1.543l-0.001-4.045l0.492-0.334v0.002l0.47-0.328c1.019-1.269,1.844-2.649,2.576-4.082v-2.41
	c0.436-0.354,1.017-0.262,1.315-0.028c0.3,0.687,0.619,1.368,0.759,2.132c0.035,0.193,0.036,0.394,0.01,0.627
	c-0.106,0.947-0.268,1.935-0.489,2.823l3.254,0.002c-0.002-0.002-0.004-0.004-0.006-0.006l2.1,0.004
	C24.513,14.878,24.561,16.031,23.768,16.451z"/>
</svg>
