<?xml version="1.0" encoding="utf-8"?>
<!-- Generator: Adobe Illustrator 16.0.0, SVG Export Plug-In . SVG Version: 6.00 Build 0)  -->
<!DOCTYPE svg PUBLIC "-//W3C//DTD SVG 1.1//EN" "http://www.w3.org/Graphics/SVG/1.1/DTD/svg11.dtd">
<svg version="1.1" id="Layer_1" xmlns="http://www.w3.org/2000/svg" xmlns:xlink="http://www.w3.org/1999/xlink" x="0px" y="0px"
	 width="32px" height="32px" viewBox="0 0 32 32" enable-background="new 0 0 32 32" xml:space="preserve">
<circle fill="#E2E2E2" cx="16" cy="16" r="16"/>
<circle fill="#F6F6F6" cx="16" cy="16" r="15"/>
<path fill="#E2E2E2" d="M8.946,11.989c0,1.358,0.484,2.338,1.439,2.915c0.781,0.473,1.688,0.542,2.16,0.542
	c0.114,0,0.207-0.13,0.271-0.134c0,0-0.148,0.688,0.572,1.688h-0.032c-1.251,0-5.333,0.373-5.333,3.514
	c0,3.197,3.748,3.486,4.5,3.486c0.061,0,0.094,0,0.094,0c0.01,0,0.062,0,0.154,0c0.482,0,1.73-0.057,2.89-0.584
	c1.504-0.684,2.266-1.871,2.266-3.533c0-1.604-1.161-2.559-2.01-3.256c-0.519-0.424-0.965-0.792-0.965-1.15
	c0-0.362,0.325-0.637,0.739-0.982c0.668-0.561,1.299-1.357,1.299-2.865c0-1.324-0.184-2.213-1.312-2.777
	c0.118-0.057,0.559-0.098,0.765-0.125c0.611-0.079,1.532-0.168,1.532-0.636V8h-4.514C13.417,8.001,8.946,8.156,8.946,11.989z
	 M16.155,20.184c0.084,1.277-1.084,2.223-2.838,2.342c-1.779,0.121-3.247-0.629-3.333-1.906c-0.042-0.613,0.247-1.215,0.812-1.693
	c0.572-0.484,1.357-0.785,2.213-0.844c0.101-0.006,0.199-0.01,0.301-0.01C14.958,18.07,16.074,18.979,16.155,20.184z M14.989,11.114
	c0.438,1.443-0.224,2.951-1.277,3.229c-0.123,0.033-0.248,0.05-0.373,0.05c-0.967,0-1.924-0.914-2.277-2.175
	c-0.197-0.709-0.182-1.326,0.045-1.922c0.225-0.586,0.624-0.979,1.129-1.112c0.121-0.033,0.247-0.05,0.373-0.05
	C13.774,9.133,14.524,9.586,14.989,11.114z M21.976,14v-2h-2v2h-2v2h2v2h2v-2h2v-2H21.976z"/>
</svg>
