<?xml version="1.0" encoding="utf-8"?>
<!-- Generator: Adobe Illustrator 16.0.0, SVG Export Plug-In . SVG Version: 6.00 Build 0)  -->
<!DOCTYPE svg PUBLIC "-//W3C//DTD SVG 1.1//EN" "http://www.w3.org/Graphics/SVG/1.1/DTD/svg11.dtd">
<svg version="1.1" id="Layer_1" xmlns="http://www.w3.org/2000/svg" xmlns:xlink="http://www.w3.org/1999/xlink" x="0px" y="0px"
	 width="32px" height="32px" viewBox="0 0 32 32" enable-background="new 0 0 32 32" xml:space="preserve">
<circle fill="#E2E2E2" cx="16" cy="16" r="16"/>
<circle fill="#F6F6F6" cx="16" cy="16" r="15"/>
<path fill="#E2E2E2" d="M10.683,12.365C9.753,12.365,9,11.61,9,10.682S9.753,9,10.683,9c0.927,0,1.681,0.754,1.681,1.682
	S11.609,12.365,10.683,12.365z"/>
<rect x="9.231" y="13.664" fill="#E2E2E2" width="2.9" height="9.336"/>
<path fill="#E2E2E2" d="M22.999,23h-2.898v-4.541c0-1.082-0.021-2.474-1.508-2.474c-1.511,0-1.741,1.179-1.741,2.396V23h-2.899
	v-9.336h2.781v1.275h0.041c0.388-0.732,1.333-1.507,2.745-1.507c2.938,0,3.48,1.933,3.48,4.447L22.999,23L22.999,23z"/>
</svg>
