<?xml version="1.0" encoding="utf-8"?>
<!-- Generator: Adobe Illustrator 16.0.0, SVG Export Plug-In . SVG Version: 6.00 Build 0)  -->
<!DOCTYPE svg PUBLIC "-//W3C//DTD SVG 1.1//EN" "http://www.w3.org/Graphics/SVG/1.1/DTD/svg11.dtd">
<svg version="1.1" id="Layer_1" xmlns="http://www.w3.org/2000/svg" xmlns:xlink="http://www.w3.org/1999/xlink" x="0px" y="0px"
	 width="32px" height="32px" viewBox="0 0 32 32" enable-background="new 0 0 32 32" xml:space="preserve">
<circle fill="#E2E2E2" cx="16" cy="16" r="16"/>
<circle fill="#F6F6F6" cx="16" cy="16" r="15"/>
<path fill="#E2E2E2" d="M12.005,24.42c-0.096-0.868-0.182-2.198,0.039-3.145c0.199-0.855,1.285-5.448,1.285-5.448S13,15.171,13,14.2
	c0-1.523,0.884-2.662,1.984-2.662c0.935,0,1.386,0.702,1.386,1.544c0,0.941-0.598,2.346-0.908,3.649
	c-0.258,1.091,0.548,1.981,1.623,1.981c1.949,0,3.446-2.056,3.446-5.021c0-2.625-1.886-4.459-4.579-4.459
	c-3.119,0-4.95,2.339-4.95,4.756c0,0.942,0.363,1.953,0.815,2.501c0.09,0.108,0.103,0.204,0.076,0.314
	c-0.083,0.345-0.268,1.091-0.304,1.243c-0.048,0.2-0.16,0.243-0.366,0.146C9.856,17.558,9,15.556,9,13.949
	c0-3.458,2.512-6.633,7.243-6.633c3.801,0,6.757,2.71,6.757,6.331c0,3.777-2.382,6.819-5.688,6.819c-1.111,0-2.155-0.578-2.513-1.26
	c0,0-0.55,2.093-0.683,2.606c-0.248,0.952-0.917,2.146-1.363,2.873C12.299,24.685,12.206,24.652,12.005,24.42z"/>
</svg>
