<?xml version="1.0" encoding="utf-8"?>
<!-- Generator: Adobe Illustrator 16.0.0, SVG Export Plug-In . SVG Version: 6.00 Build 0)  -->
<!DOCTYPE svg PUBLIC "-//W3C//DTD SVG 1.1//EN" "http://www.w3.org/Graphics/SVG/1.1/DTD/svg11.dtd">
<svg version="1.1" id="Layer_1" xmlns="http://www.w3.org/2000/svg" xmlns:xlink="http://www.w3.org/1999/xlink" x="0px" y="0px"
	 width="32px" height="32px" viewBox="0 0 32 32" enable-background="new 0 0 32 32" xml:space="preserve">
<circle fill="#E2E2E2" cx="16" cy="16" r="16"/>
<circle fill="#F6F6F6" cx="16" cy="16" r="15"/>
<path fill="#E2E2E2" d="M23,11.49c-0.515,0.238-1.069,0.398-1.65,0.471c0.593-0.369,1.049-0.954,1.263-1.651
	c-0.555,0.342-1.17,0.59-1.823,0.724c-0.523-0.58-1.271-0.942-2.096-0.942c-1.588,0-2.872,1.336-2.872,2.983
	c0,0.234,0.024,0.461,0.073,0.68c-2.388-0.125-4.503-1.313-5.92-3.118c-0.247,0.44-0.389,0.954-0.389,1.5
	c0,1.035,0.507,1.948,1.278,2.483c-0.471-0.015-0.914-0.149-1.302-0.373c0,0.013,0,0.025,0,0.038c0,1.445,0.989,2.651,2.304,2.925
	c-0.241,0.068-0.494,0.105-0.757,0.105c-0.185,0-0.365-0.019-0.54-0.054c0.365,1.184,1.426,2.047,2.683,2.072
	c-0.983,0.799-2.221,1.275-3.567,1.275c-0.231,0-0.46-0.014-0.685-0.041c1.271,0.846,2.781,1.34,4.402,1.34
	c5.282,0,8.173-4.547,8.173-8.488c0-0.129-0.003-0.257-0.009-0.386C22.127,12.614,22.615,12.089,23,11.49z"/>
</svg>
